<?xml version="1.0" encoding="utf-8"?>
<!-- Generator: Adobe Illustrator 28.2.0, SVG Export Plug-In . SVG Version: 6.00 Build 0)  -->
<svg version="1.1" id="Layer_1" xmlns="http://www.w3.org/2000/svg" xmlns:xlink="http://www.w3.org/1999/xlink" x="0px" y="0px"
	 viewBox="0 0 85 85" style="enable-background:new 0 0 85 85;" xml:space="preserve">
<style type="text/css">
	.st0{fill:#125B28;}
</style>
<path class="st0" d="M79,56l-16.1-8.4c-2-1-4.5-0.8-6.2,0.4l-10.8,7.5c-5.9-4.5-9-7.9-9.6-8.6c-0.1-0.1-0.2-0.2-0.3-0.3
	c-0.5-0.4-3.5-3.3-6.6-7.2l7.7-11c1.3-1.8,1.5-4.3,0.5-6.3L29,6c-1-2-3.1-3.2-5.3-3.2c-0.9,0-1.9,0.2-2.7,0.7L6.1,11.2
	c-2.6,1.3-3.8,4.3-3,7.1c7,23,21.3,36.5,23.3,38.3c3,3.2,17.9,18.5,40.4,25.4c0.6,0.2,1.1,0.3,1.7,0.3l0,0c2.2,0,4.3-1.2,5.3-3.2
	L81.5,64C83,61.1,81.9,57.5,79,56z"/>
</svg>
